<svg width="84" height="32" viewBox="0 0 84 32" fill="none" xmlns="http://www.w3.org/2000/svg">
<path d="M3.75 8.75H26.25" stroke="#151411" stroke-width="2" stroke-linecap="round"/>
<path d="M7.5 15H22.5" stroke="#151411" stroke-width="2" stroke-linecap="round"/>
<path d="M12.5 21.25H17.5" stroke="#151411" stroke-width="2" stroke-linecap="round"/>
<path d="M41.494 9.59H49.99V11.21H43.258V15.548H49.36V17.168H43.258V23H41.494V9.59ZM51.7901 13.298H53.4641V23H51.7901V13.298ZM51.5921 10.706C51.5921 10.394 51.6881 10.142 51.8801 9.95C52.0721 9.758 52.3241 9.662 52.6361 9.662C52.9481 9.662 53.2001 9.758 53.3921 9.95C53.5841 10.142 53.6801 10.394 53.6801 10.706C53.6801 11.018 53.5841 11.27 53.3921 11.462C53.2001 11.654 52.9481 11.75 52.6361 11.75C52.3241 11.75 52.0721 11.654 51.8801 11.462C51.6881 11.27 51.5921 11.018 51.5921 10.706ZM56.0616 9.374H57.7356V23H56.0616V9.374ZM64.2751 23.108C63.3271 23.108 62.5951 22.844 62.0791 22.316C61.5751 21.776 61.3231 21.008 61.3231 20.012V14.9H59.5591V13.298H59.9191C60.3511 13.298 60.6931 13.172 60.9451 12.92C61.1971 12.656 61.3231 12.302 61.3231 11.858V11.066H62.9971V13.298H65.1751V14.9H62.9971V19.958C62.9971 21.038 63.5371 21.578 64.6171 21.578C64.8451 21.578 65.0671 21.56 65.2831 21.524V23.018C65.0311 23.078 64.6951 23.108 64.2751 23.108ZM71.6702 23.216C70.7582 23.216 69.9302 22.994 69.1862 22.55C68.4422 22.106 67.8602 21.5 67.4402 20.732C67.0202 19.952 66.8102 19.082 66.8102 18.122C66.8102 17.162 67.0142 16.298 67.4222 15.53C67.8422 14.762 68.4062 14.162 69.1142 13.73C69.8342 13.298 70.6382 13.082 71.5262 13.082C72.4502 13.082 73.2542 13.298 73.9382 13.73C74.6342 14.162 75.1622 14.738 75.5222 15.458C75.8942 16.166 76.0802 16.928 76.0802 17.744C76.0802 18.02 76.0502 18.32 75.9902 18.644H68.5742C68.5982 19.256 68.7542 19.79 69.0422 20.246C69.3302 20.702 69.7022 21.056 70.1582 21.308C70.6262 21.56 71.1362 21.686 71.6882 21.686C72.8642 21.686 73.7702 21.152 74.4062 20.084L75.8102 20.804C75.4982 21.5 74.9702 22.076 74.2262 22.532C73.4822 22.988 72.6302 23.216 71.6702 23.216ZM74.2622 17.204C74.2382 16.448 73.9622 15.824 73.4342 15.332C72.9182 14.828 72.2822 14.576 71.5262 14.576C70.7822 14.576 70.1402 14.816 69.6002 15.296C69.0602 15.764 68.7302 16.4 68.6102 17.204H74.2622ZM78.2628 13.298H79.9008V14.45C80.4048 13.61 81.2628 13.19 82.4748 13.19H83.0688V14.774H82.2228C81.5268 14.774 80.9688 14.99 80.5488 15.422C80.1408 15.854 79.9368 16.454 79.9368 17.222V23H78.2628V13.298Z" fill="#151411"/>
</svg>
