<svg width="165" height="50" viewBox="0 0 165 50" fill="none" xmlns="http://www.w3.org/2000/svg">
<rect x="1" y="1" width="163" height="48" stroke="#F3F3F3" stroke-width="1.5"/>
<path d="M42.402 21.08H44.578V31.08H49.682V33H42.402V21.08ZM55.1695 33.192C54.3268 33.192 53.5535 32.9947 52.8495 32.6C52.1455 32.2053 51.5855 31.6613 51.1695 30.968C50.7642 30.2747 50.5615 29.5013 50.5615 28.648C50.5615 27.7947 50.7642 27.0213 51.1695 26.328C51.5748 25.6347 52.1295 25.0907 52.8335 24.696C53.5375 24.3013 54.3162 24.104 55.1695 24.104C56.0122 24.104 56.7802 24.3013 57.4735 24.696C58.1775 25.0907 58.7322 25.6347 59.1375 26.328C59.5535 27.0213 59.7615 27.7947 59.7615 28.648C59.7615 29.512 59.5535 30.2907 59.1375 30.984C58.7322 31.6773 58.1775 32.2213 57.4735 32.616C56.7695 33 56.0015 33.192 55.1695 33.192ZM52.7375 28.648C52.7375 29.4053 52.9615 30.0347 53.4095 30.536C53.8682 31.0267 54.4548 31.272 55.1695 31.272C55.6282 31.272 56.0388 31.16 56.4015 30.936C56.7642 30.712 57.0468 30.4027 57.2495 30.008C57.4628 29.6027 57.5695 29.1493 57.5695 28.648C57.5695 28.1573 57.4628 27.7147 57.2495 27.32C57.0468 26.9147 56.7642 26.6 56.4015 26.376C56.0388 26.1413 55.6282 26.024 55.1695 26.024C54.7002 26.024 54.2788 26.1413 53.9055 26.376C53.5428 26.6 53.2548 26.9093 53.0415 27.304C52.8388 27.6987 52.7375 28.1467 52.7375 28.648ZM63.991 33.192C63.0737 33.192 62.343 32.968 61.799 32.52C61.2657 32.072 60.999 31.464 60.999 30.696C60.999 29.96 61.2497 29.352 61.751 28.872C62.2523 28.392 63.0043 28.072 64.007 27.912L66.599 27.496V27.208C66.599 26.824 66.4497 26.5093 66.151 26.264C65.863 26.0187 65.479 25.896 64.999 25.896C64.551 25.896 64.151 26.0187 63.799 26.264C63.4577 26.4987 63.207 26.8133 63.047 27.208L61.335 26.376C61.591 25.6933 62.0603 25.144 62.743 24.728C63.4257 24.312 64.2043 24.104 65.079 24.104C65.783 24.104 66.407 24.2373 66.951 24.504C67.5057 24.76 67.9323 25.128 68.231 25.608C68.5403 26.0773 68.695 26.6107 68.695 27.208V33H66.711V32.072C66.0283 32.8187 65.1217 33.192 63.991 33.192ZM63.175 30.616C63.175 30.9147 63.287 31.1547 63.511 31.336C63.735 31.5067 64.023 31.592 64.375 31.592C65.0257 31.592 65.559 31.3893 65.975 30.984C66.391 30.568 66.599 30.056 66.599 29.448V29.096L64.407 29.464C63.991 29.5493 63.6817 29.688 63.479 29.88C63.2763 30.0613 63.175 30.3067 63.175 30.616ZM74.6803 33.192C73.8483 33.192 73.0963 32.9947 72.4243 32.6C71.7629 32.1947 71.2403 31.6453 70.8563 30.952C70.4723 30.2587 70.2803 29.4907 70.2803 28.648C70.2803 27.8053 70.4723 27.0373 70.8563 26.344C71.2403 25.6507 71.7683 25.1067 72.4403 24.712C73.1123 24.3067 73.8536 24.104 74.6643 24.104C75.2189 24.104 75.7256 24.2 76.1843 24.392C76.6429 24.5733 77.0269 24.8347 77.3363 25.176V20.888H79.4323V33H77.4483V32.04C77.1283 32.4133 76.7283 32.7013 76.2483 32.904C75.7683 33.096 75.2456 33.192 74.6803 33.192ZM72.4563 28.648C72.4563 29.1493 72.5576 29.6027 72.7603 30.008C72.9736 30.4027 73.2669 30.712 73.6403 30.936C74.0136 31.16 74.4349 31.272 74.9043 31.272C75.3736 31.272 75.7896 31.16 76.1523 30.936C76.5256 30.712 76.8136 30.4027 77.0163 30.008C77.2296 29.6027 77.3363 29.1493 77.3363 28.648C77.3363 28.1467 77.2296 27.6987 77.0163 27.304C76.8136 26.8987 76.5256 26.584 76.1523 26.36C75.7789 26.136 75.3629 26.024 74.9043 26.024C74.4349 26.024 74.0136 26.1413 73.6403 26.376C73.2669 26.6 72.9736 26.9147 72.7603 27.32C72.5576 27.7147 72.4563 28.1573 72.4563 28.648ZM84.402 21.08H86.482L90.45 26.456L94.322 21.08H96.402V33H94.21V24.904L90.53 29.8H90.274L86.578 24.744V33H84.402V21.08ZM102.763 33.192C101.921 33.192 101.147 32.9947 100.443 32.6C99.7393 32.2053 99.1793 31.6613 98.7633 30.968C98.3579 30.2747 98.1553 29.5013 98.1553 28.648C98.1553 27.7947 98.3579 27.0213 98.7633 26.328C99.1686 25.6347 99.7233 25.0907 100.427 24.696C101.131 24.3013 101.91 24.104 102.763 24.104C103.606 24.104 104.374 24.3013 105.067 24.696C105.771 25.0907 106.326 25.6347 106.731 26.328C107.147 27.0213 107.355 27.7947 107.355 28.648C107.355 29.512 107.147 30.2907 106.731 30.984C106.326 31.6773 105.771 32.2213 105.067 32.616C104.363 33 103.595 33.192 102.763 33.192ZM100.331 28.648C100.331 29.4053 100.555 30.0347 101.003 30.536C101.462 31.0267 102.049 31.272 102.763 31.272C103.222 31.272 103.633 31.16 103.995 30.936C104.358 30.712 104.641 30.4027 104.843 30.008C105.057 29.6027 105.163 29.1493 105.163 28.648C105.163 28.1573 105.057 27.7147 104.843 27.32C104.641 26.9147 104.358 26.6 103.995 26.376C103.633 26.1413 103.222 26.024 102.763 26.024C102.294 26.024 101.873 26.1413 101.499 26.376C101.137 26.6 100.849 26.9093 100.635 27.304C100.433 27.6987 100.331 28.1467 100.331 28.648ZM108.945 24.296H110.913V25.512C111.126 25.0427 111.43 24.7067 111.825 24.504C112.219 24.3013 112.699 24.2 113.265 24.2H113.777V26.056H113.025C112.427 26.056 111.947 26.2427 111.585 26.616C111.222 26.9893 111.041 27.5013 111.041 28.152V33H108.945V24.296ZM119.057 33.192C118.182 33.192 117.404 32.9893 116.721 32.584C116.049 32.1787 115.521 31.6293 115.137 30.936C114.764 30.2427 114.577 29.4747 114.577 28.632C114.577 27.7787 114.764 27.0107 115.137 26.328C115.521 25.6347 116.038 25.0907 116.689 24.696C117.35 24.3013 118.086 24.104 118.897 24.104C119.772 24.104 120.529 24.296 121.169 24.68C121.809 25.0533 122.294 25.5653 122.625 26.216C122.966 26.8667 123.137 27.5813 123.137 28.36C123.137 28.7227 123.1 29.016 123.025 29.24H116.753C116.817 29.88 117.062 30.392 117.489 30.776C117.916 31.16 118.444 31.352 119.073 31.352C119.542 31.352 119.942 31.256 120.273 31.064C120.614 30.8613 120.886 30.584 121.089 30.232L122.785 31.064C122.518 31.704 122.049 32.2213 121.377 32.616C120.705 33 119.932 33.192 119.057 33.192ZM120.897 27.64C120.844 27.1067 120.636 26.6747 120.273 26.344C119.91 26.0027 119.452 25.832 118.897 25.832C118.364 25.832 117.91 25.992 117.537 26.312C117.164 26.6213 116.918 27.064 116.801 27.64H120.897Z" fill="#151411"/>
</svg>
