<svg width="172" height="56" viewBox="0 0 172 56" fill="none" xmlns="http://www.w3.org/2000/svg">
<rect x="1" y="1" width="170" height="54" stroke="#F3F3F3" stroke-width="1.5"/>
<path d="M41.2013 21.59H43.6493V32.84H49.3913V35H41.2013V21.59ZM55.5647 35.216C54.6167 35.216 53.7467 34.994 52.9547 34.55C52.1627 34.106 51.5327 33.494 51.0647 32.714C50.6087 31.934 50.3807 31.064 50.3807 30.104C50.3807 29.144 50.6087 28.274 51.0647 27.494C51.5207 26.714 52.1447 26.102 52.9367 25.658C53.7287 25.214 54.6047 24.992 55.5647 24.992C56.5127 24.992 57.3767 25.214 58.1567 25.658C58.9487 26.102 59.5727 26.714 60.0287 27.494C60.4967 28.274 60.7307 29.144 60.7307 30.104C60.7307 31.076 60.4967 31.952 60.0287 32.732C59.5727 33.512 58.9487 34.124 58.1567 34.568C57.3647 35 56.5007 35.216 55.5647 35.216ZM52.8287 30.104C52.8287 30.956 53.0807 31.664 53.5847 32.228C54.1007 32.78 54.7607 33.056 55.5647 33.056C56.0807 33.056 56.5427 32.93 56.9507 32.678C57.3587 32.426 57.6767 32.078 57.9047 31.634C58.1447 31.178 58.2647 30.668 58.2647 30.104C58.2647 29.552 58.1447 29.054 57.9047 28.61C57.6767 28.154 57.3587 27.8 56.9507 27.548C56.5427 27.284 56.0807 27.152 55.5647 27.152C55.0367 27.152 54.5627 27.284 54.1427 27.548C53.7347 27.8 53.4107 28.148 53.1707 28.592C52.9427 29.036 52.8287 29.54 52.8287 30.104ZM65.4889 35.216C64.4569 35.216 63.6349 34.964 63.0229 34.46C62.4229 33.956 62.1229 33.272 62.1229 32.408C62.1229 31.58 62.4049 30.896 62.9689 30.356C63.5329 29.816 64.3789 29.456 65.5069 29.276L68.4229 28.808V28.484C68.4229 28.052 68.2549 27.698 67.9189 27.422C67.5949 27.146 67.1629 27.008 66.6229 27.008C66.1189 27.008 65.6689 27.146 65.2729 27.422C64.8889 27.686 64.6069 28.04 64.4269 28.484L62.5009 27.548C62.7889 26.78 63.3169 26.162 64.0849 25.694C64.8529 25.226 65.7289 24.992 66.7129 24.992C67.5049 24.992 68.2069 25.142 68.8189 25.442C69.4429 25.73 69.9229 26.144 70.2589 26.684C70.6069 27.212 70.7809 27.812 70.7809 28.484V35H68.5489V33.956C67.7809 34.796 66.7609 35.216 65.4889 35.216ZM64.5709 32.318C64.5709 32.654 64.6969 32.924 64.9489 33.128C65.2009 33.32 65.5249 33.416 65.9209 33.416C66.6529 33.416 67.2529 33.188 67.7209 32.732C68.1889 32.264 68.4229 31.688 68.4229 31.004V30.608L65.9569 31.022C65.4889 31.118 65.1409 31.274 64.9129 31.49C64.6849 31.694 64.5709 31.97 64.5709 32.318ZM77.5143 35.216C76.5783 35.216 75.7323 34.994 74.9763 34.55C74.2323 34.094 73.6443 33.476 73.2123 32.696C72.7803 31.916 72.5643 31.052 72.5643 30.104C72.5643 29.156 72.7803 28.292 73.2123 27.512C73.6443 26.732 74.2383 26.12 74.9943 25.676C75.7503 25.22 76.5843 24.992 77.4963 24.992C78.1203 24.992 78.6903 25.1 79.2063 25.316C79.7223 25.52 80.1543 25.814 80.5023 26.198V21.374H82.8603V35H80.6283V33.92C80.2683 34.34 79.8183 34.664 79.2783 34.892C78.7383 35.108 78.1503 35.216 77.5143 35.216ZM75.0123 30.104C75.0123 30.668 75.1263 31.178 75.3543 31.634C75.5943 32.078 75.9243 32.426 76.3443 32.678C76.7643 32.93 77.2383 33.056 77.7663 33.056C78.2943 33.056 78.7623 32.93 79.1703 32.678C79.5903 32.426 79.9143 32.078 80.1423 31.634C80.3823 31.178 80.5023 30.668 80.5023 30.104C80.5023 29.54 80.3823 29.036 80.1423 28.592C79.9143 28.136 79.5903 27.782 79.1703 27.53C78.7503 27.278 78.2823 27.152 77.7663 27.152C77.2383 27.152 76.7643 27.284 76.3443 27.548C75.9243 27.8 75.5943 28.154 75.3543 28.61C75.1263 29.054 75.0123 29.552 75.0123 30.104ZM88.4513 21.59H90.7913L95.2553 27.638L99.6113 21.59H101.951V35H99.4853V25.892L95.3453 31.4H95.0573L90.8993 25.712V35H88.4513V21.59ZM109.108 35.216C108.16 35.216 107.29 34.994 106.498 34.55C105.706 34.106 105.076 33.494 104.608 32.714C104.152 31.934 103.924 31.064 103.924 30.104C103.924 29.144 104.152 28.274 104.608 27.494C105.064 26.714 105.688 26.102 106.48 25.658C107.272 25.214 108.148 24.992 109.108 24.992C110.056 24.992 110.92 25.214 111.7 25.658C112.492 26.102 113.116 26.714 113.572 27.494C114.04 28.274 114.274 29.144 114.274 30.104C114.274 31.076 114.04 31.952 113.572 32.732C113.116 33.512 112.492 34.124 111.7 34.568C110.908 35 110.044 35.216 109.108 35.216ZM106.372 30.104C106.372 30.956 106.624 31.664 107.128 32.228C107.644 32.78 108.304 33.056 109.108 33.056C109.624 33.056 110.086 32.93 110.494 32.678C110.902 32.426 111.22 32.078 111.448 31.634C111.688 31.178 111.808 30.668 111.808 30.104C111.808 29.552 111.688 29.054 111.448 28.61C111.22 28.154 110.902 27.8 110.494 27.548C110.086 27.284 109.624 27.152 109.108 27.152C108.58 27.152 108.106 27.284 107.686 27.548C107.278 27.8 106.954 28.148 106.714 28.592C106.486 29.036 106.372 29.54 106.372 30.104ZM116.062 25.208H118.276V26.576C118.516 26.048 118.858 25.67 119.302 25.442C119.746 25.214 120.286 25.1 120.922 25.1H121.498V27.188H120.652C119.98 27.188 119.44 27.398 119.032 27.818C118.624 28.238 118.42 28.814 118.42 29.546V35H116.062V25.208ZM127.438 35.216C126.454 35.216 125.578 34.988 124.81 34.532C124.054 34.076 123.46 33.458 123.028 32.678C122.608 31.898 122.398 31.034 122.398 30.086C122.398 29.126 122.608 28.262 123.028 27.494C123.46 26.714 124.042 26.102 124.774 25.658C125.518 25.214 126.346 24.992 127.258 24.992C128.242 24.992 129.094 25.208 129.814 25.64C130.534 26.06 131.08 26.636 131.452 27.368C131.836 28.1 132.028 28.904 132.028 29.78C132.028 30.188 131.986 30.518 131.902 30.77H124.846C124.918 31.49 125.194 32.066 125.674 32.498C126.154 32.93 126.748 33.146 127.456 33.146C127.984 33.146 128.434 33.038 128.806 32.822C129.19 32.594 129.496 32.282 129.724 31.886L131.632 32.822C131.332 33.542 130.804 34.124 130.048 34.568C129.292 35 128.422 35.216 127.438 35.216ZM129.508 28.97C129.448 28.37 129.214 27.884 128.806 27.512C128.398 27.128 127.882 26.936 127.258 26.936C126.658 26.936 126.148 27.116 125.728 27.476C125.308 27.824 125.032 28.322 124.9 28.97H129.508Z" fill="#151411"/>
</svg>
