<svg width="99" height="32" viewBox="0 0 99 32" fill="none" xmlns="http://www.w3.org/2000/svg">
<path d="M3 11H21" stroke="#151411" stroke-width="1.5" stroke-linecap="round"/>
<path d="M6 16H18" stroke="#151411" stroke-width="1.5" stroke-linecap="round"/>
<path d="M10 21H14" stroke="#151411" stroke-width="1.5" stroke-linecap="round"/>
<path d="M42.3745 23.216C41.4625 23.216 40.6465 23.048 39.9265 22.712C39.2065 22.364 38.6125 21.908 38.1445 21.344C37.6765 20.768 37.3525 20.15 37.1725 19.49L38.7925 18.986C39.0445 19.79 39.5125 20.426 40.1965 20.894C40.8925 21.362 41.6185 21.596 42.3745 21.596C42.8785 21.596 43.3285 21.494 43.7245 21.29C44.1325 21.086 44.4505 20.828 44.6785 20.516C44.9065 20.204 45.0205 19.892 45.0205 19.58C45.0205 19.088 44.8465 18.644 44.4985 18.248C44.1625 17.852 43.6945 17.588 43.0945 17.456L40.8265 16.952C39.8665 16.748 39.1045 16.292 38.5405 15.584C37.9885 14.864 37.7125 14.042 37.7125 13.118C37.7125 12.41 37.8925 11.774 38.2525 11.21C38.6245 10.634 39.1285 10.184 39.7645 9.86C40.4005 9.536 41.1025 9.374 41.8705 9.374C42.7225 9.374 43.4785 9.524 44.1385 9.824C44.8105 10.124 45.3565 10.526 45.7765 11.03C46.2085 11.522 46.5145 12.056 46.6945 12.632L45.0925 13.208C44.8285 12.5 44.3905 11.954 43.7785 11.57C43.1785 11.186 42.5485 10.994 41.8885 10.994C41.4325 10.994 41.0245 11.096 40.6645 11.3C40.3045 11.492 40.0225 11.744 39.8185 12.056C39.6145 12.368 39.5125 12.686 39.5125 13.01C39.5125 13.514 39.6925 13.976 40.0525 14.396C40.4245 14.804 40.8865 15.068 41.4385 15.188L43.4905 15.656C44.5705 15.896 45.3985 16.352 45.9745 17.024C46.5505 17.696 46.8385 18.5 46.8385 19.436C46.8385 20.144 46.6525 20.786 46.2805 21.362C45.9085 21.938 45.3805 22.394 44.6965 22.73C44.0245 23.054 43.2505 23.216 42.3745 23.216ZM53.8132 23.216C52.8892 23.216 52.0432 23 51.2752 22.568C50.5192 22.124 49.9192 21.518 49.4752 20.75C49.0312 19.97 48.8092 19.1 48.8092 18.14C48.8092 17.192 49.0252 16.334 49.4572 15.566C49.9012 14.786 50.5012 14.18 51.2572 13.748C52.0252 13.304 52.8772 13.082 53.8132 13.082C54.7372 13.082 55.5772 13.304 56.3332 13.748C57.1012 14.18 57.7012 14.78 58.1332 15.548C58.5772 16.316 58.7992 17.18 58.7992 18.14C58.7992 19.112 58.5772 19.982 58.1332 20.75C57.6892 21.518 57.0832 22.124 56.3152 22.568C55.5592 23 54.7252 23.216 53.8132 23.216ZM50.5732 18.14C50.5732 18.788 50.7112 19.376 50.9872 19.904C51.2752 20.432 51.6652 20.846 52.1572 21.146C52.6612 21.446 53.2132 21.596 53.8132 21.596C54.4012 21.596 54.9412 21.446 55.4332 21.146C55.9252 20.846 56.3092 20.432 56.5852 19.904C56.8732 19.376 57.0172 18.788 57.0172 18.14C57.0172 17.492 56.8732 16.91 56.5852 16.394C56.3092 15.866 55.9252 15.452 55.4332 15.152C54.9412 14.852 54.4012 14.702 53.8132 14.702C53.2132 14.702 52.6612 14.852 52.1572 15.152C51.6652 15.452 51.2752 15.866 50.9872 16.394C50.7112 16.91 50.5732 17.492 50.5732 18.14ZM60.9825 13.298H62.6205V14.45C63.1245 13.61 63.9825 13.19 65.1945 13.19H65.7885V14.774H64.9425C64.2465 14.774 63.6885 14.99 63.2685 15.422C62.8605 15.854 62.6565 16.454 62.6565 17.222V23H60.9825V13.298ZM71.3054 23.108C70.3574 23.108 69.6254 22.844 69.1094 22.316C68.6054 21.776 68.3534 21.008 68.3534 20.012V14.9H66.5894V13.298H66.9494C67.3814 13.298 67.7234 13.172 67.9754 12.92C68.2274 12.656 68.3534 12.302 68.3534 11.858V11.066H70.0274V13.298H72.2054V14.9H70.0274V19.958C70.0274 21.038 70.5674 21.578 71.6474 21.578C71.8754 21.578 72.0974 21.56 72.3134 21.524V23.018C72.0614 23.078 71.7254 23.108 71.3054 23.108ZM77.8094 9.59H83.4434C84.6434 9.59 85.5914 9.908 86.2874 10.544C86.9954 11.18 87.3494 12.032 87.3494 13.1C87.3494 13.664 87.2294 14.174 86.9894 14.63C86.7614 15.086 86.4254 15.47 85.9814 15.782C86.6054 16.13 87.0794 16.586 87.4034 17.15C87.7274 17.714 87.8894 18.338 87.8894 19.022C87.8894 20.258 87.4934 21.23 86.7014 21.938C85.9094 22.646 84.8294 23 83.4614 23H77.8094V9.59ZM83.5334 21.38C84.3134 21.38 84.9374 21.17 85.4054 20.75C85.8734 20.33 86.1074 19.76 86.1074 19.04C86.1074 18.332 85.8734 17.762 85.4054 17.33C84.9374 16.898 84.3134 16.682 83.5334 16.682H79.5734V21.38H83.5334ZM83.4074 15.098C84.0554 15.098 84.5774 14.912 84.9734 14.54C85.3694 14.168 85.5674 13.682 85.5674 13.082C85.5674 12.482 85.3694 12.02 84.9734 11.696C84.5894 11.36 84.0674 11.192 83.4074 11.192H79.5734V15.098H83.4074ZM92.8283 22.982L88.9763 13.298H90.7943L93.7463 20.876L96.6803 13.298H98.5343L93.1703 26.6H91.3163L92.8283 22.982Z" fill="#151411"/>
</svg>
